<?xml version="1.0" encoding="UTF-8"?>
<svg id="Layer_2" data-name="Layer 2" xmlns="http://www.w3.org/2000/svg" viewBox="0 0 36.16 59.2">
  <defs>
    <style>
      .cls-1, .cls-2 {
        fill: #fff;
      }

      .cls-3 {
        fill: #58595b;
      }

      .cls-2 {
        font-family: ArialMT, Arial;
        font-size: 5.62px;
      }
    </style>
  </defs>
  <g id="Layer_1-2" data-name="Layer 1">
    <path class="cls-1" d="M8.75,33.59C3.49,30.43-.02,24.64,0,18.04.03,8.06,8.09-.02,18.01,0c10.13.02,18.22,8.12,18.15,18.17-.05,7.13-4.13,13.21-10.08,16.14l-.52-1.39c5.37-2.76,9.12-8.4,9.13-14.8.02-9.05-7.47-16.64-16.44-16.65-9.22-.01-16.76,7.39-16.78,16.46-.01,6.12,3.18,11.43,8.02,14.36l-.73,1.31Z"/>
    <path class="cls-3" d="M21.23,16.13c1.67-.6,3.32-1.15,5.11-.81,1.84.35,3.14,1.87,3.25,3.76.15,2.54-1.09,4.46-2.76,6.16-1.35,1.38-3,2.19-4.96,2.29-1.4.06-1.9-.39-1.93-1.79-.03-.99-.01-1.99-.1-2.97-.05-.52-.27-1.01-.43-1.57,2.03-1.08,2.69-2.77,1.83-5.06"/>
    <path class="cls-3" d="M14.98,16.11c-.92-1.07-1.88-1.99-2.59-3.06-1.5-2.27-.77-4.8,1.63-6.1,3.28-1.78,8.65-.38,10.64,2.78.78,1.24.61,1.93-.66,2.68-.73.43-1.48.82-2.19,1.28-.55.35-1.06.77-1.69,1.24-.49-.38-1.43-.72-2.48-.58-1.07.14-1.89.7-2.65,1.76"/>
    <path class="cls-3" d="M14.54,17.23c.2,2.82.61,3.29,3.76,4.33-.41,1.2-.7,2.46-1.25,3.59-1.24,2.56-3.9,3.2-6.29,1.62-3.04-2-4.44-7.05-2.87-10.33.15-.3.33-.59.53-.86.34-.45.8-.62,1.35-.44.34.12.7.24.99.44,1.14.8,2.35,1.44,3.78,1.65"/>
    <path class="cls-1" d="M21.23,16.13c1.67-.6,3.32-1.15,5.11-.81,1.84.35,3.14,1.87,3.25,3.76.15,2.54-1.09,4.46-2.76,6.16-1.35,1.38-3,2.19-4.96,2.29-1.4.06-1.9-.39-1.93-1.79-.03-.99-.01-1.99-.1-2.97-.05-.52-.27-1.01-.43-1.57,2.03-1.08,2.69-2.77,1.83-5.06"/>
    <path class="cls-1" d="M14.98,16.11c-.92-1.07-1.88-1.99-2.59-3.06-1.5-2.27-.77-4.8,1.63-6.1,3.28-1.78,8.65-.38,10.64,2.78.78,1.24.61,1.93-.66,2.68-.73.43-1.48.82-2.19,1.28-.55.35-1.06.77-1.69,1.24-.49-.38-1.43-.72-2.48-.58-1.07.14-1.89.7-2.65,1.76"/>
    <path class="cls-1" d="M14.54,17.23c.2,2.82.61,3.29,3.76,4.33-.41,1.2-.7,2.46-1.25,3.59-1.24,2.56-3.9,3.2-6.29,1.62-3.04-2-4.44-7.05-2.87-10.33.15-.3.33-.59.53-.86.34-.45.8-.62,1.35-.44.34.12.7.24.99.44,1.14.8,2.35,1.44,3.78,1.65"/>
    <path class="cls-3" d="M17.99,20.62c-1.56-.01-2.82-1.26-2.83-2.82-.01-1.55,1.34-2.89,2.88-2.86,1.59.03,2.83,1.31,2.8,2.92-.02,1.57-1.27,2.77-2.86,2.76M16.9,17.77c-.01.66.48,1.17,1.12,1.17.6,0,1.11-.49,1.12-1.11.02-.63-.5-1.16-1.13-1.16-.62,0-1.1.48-1.11,1.1Z"/>
    <path class="cls-1" d="M17.99,20.62c-1.56-.01-2.82-1.26-2.83-2.82-.01-1.55,1.34-2.89,2.88-2.86,1.59.03,2.83,1.31,2.8,2.92-.02,1.57-1.27,2.77-2.86,2.76M16.9,17.77c-.01.66.48,1.17,1.12,1.17.6,0,1.11-.49,1.12-1.11.02-.63-.5-1.16-1.13-1.16-.62,0-1.1.48-1.11,1.1Z"/>
    <path class="cls-1" d="M15.62,33.71c.62-.6,1.19-1.16,1.77-1.72.08-.08.17-.15.27-.2.18-.09.33-.03.39.16.03.11.04.22.04.33,0,1.18,0,2.37,0,3.55,0,.21.04.37.21.5.14.12.26.26.38.39.94-.48.96-1.62.05-2.47.07-.11.13-.22.2-.33.03-.04.06-.09.09-.13,1.02.54,1.5,2.28.12,3.37.16.16.33.31.49.47,1.31-.87,1.61-3.27-.23-4.47.1-.16.19-.31.29-.47,1.79,1,2.29,3.77.33,5.44.16.14.32.26.47.41.18.17.19.35.05.49-.14.15-.33.14-.51-.04-2.21-2.2-4.41-4.41-6.61-6.61-.16-.16-.17-.35-.04-.49.14-.14.33-.12.49.04.53.52,1.05,1.05,1.58,1.58.06.06.1.12.17.2"/>
    <path class="cls-1" d="M13.73,35.45c0-.3-.02-.6,0-.9.01-.13.09-.28.18-.37.14-.14.29-.12.43.03,1.21,1.21,2.42,2.41,3.62,3.62.06.07.1.18.11.28.02.22.03.44,0,.66-.02.14-.08.31-.18.39-.15.11-.31-.02-.42-.13-.34-.32-.67-.65-1-.97-.4-.38-.79-.77-1.2-1.14-.05-.04-.13-.06-.2-.06-.28,0-.56,0-.84,0-.34,0-.51-.18-.51-.52,0-.29,0-.58,0-.88"/>
    <text class="cls-2" transform="translate(2.19 48.54) scale(1 1.15)"><tspan x="0" y="0">LOW NOISE</tspan></text>
    <text class="cls-2" transform="translate(1.77 57.1) scale(1 1.15)"><tspan x="0" y="0">OPERA</tspan></text>
    <text class="cls-2" transform="translate(21.04 57.1) scale(1 1.15)"><tspan x="0" y="0">TION</tspan></text>
  </g>
</svg>